{"title":"The Adjustment Burea 2011 DVDrip English Klam","uid":6464329,"size":1156919607,"categoryP":"video","categoryS":"movies","magnet":"?xt=urn:btih:a7a05ae735895687fe26a2eaeef4f71b426ba096&amp;dn=The+Adjustment+Burea+2011+DVDrip+English+Klam&amp;tr=udp%3A%2F%2Ftracker.openbittorrent.com%3A80&amp;tr=udp%3A%2F%2Fopen.demonii.com%3A1337&amp;tr=udp%3A%2F%2Ftracker.coppersurfer.tk%3A6969&amp;tr=udp%3A%2F%2Fexodus.desync.com%3A6969","seeders":0,"leechers":1,"uploader":"Klambake","files":-1,"time":1307907439,"description":"With: Matt Damon, Emily Blunt and Michael Kelly\n\nDe ambitieuze David Norris (Matt Damon) staat op het punt een zetel te bemachtigen in de Amerikaanse senaat...\n\nThe affair between a politician and a ballerina is affected by mysterious forces keeping the lovers apart. \n\n------------------ Dutch Friends ------------------\n\nYou can find my Friends at: http://www.Film-Test.nl \n                    \n------ They got my dutchs subs ---- and more ------\n\nGeneral:\n\nComplete name                    : The Adjustment Burea\\The Adjustment Burea.avi\nFormat                           : AVI\nFormat/Info                      : Audio Video Interleave\nFile size                        : 1.08 GiB\nDuration                         : 1h 45mn\nOverall bit rate                 : 1 457 Kbps\n\nVideo:\n\nFormat                           : MPEG-4 Visual\nFormat profile                   : Simple@L3\nFormat settings, BVOP            : No\nFormat settings, QPel            : No\nFormat settings, GMC             : No warppoints\nFormat settings, Matrix          : Default (H.263)\nCodec ID                         : XVID\nCodec ID/Hint                    : XviD\nDuration                         : 1h 45mn\nBit rate                         : 998 Kbps\nWidth                            : 652 pixels\nHeight                           : 352 pixels\nDisplay aspect ratio             : 1.852\nFrame rate                       : 23.976 fps\nColor space                      : YUV\nChroma subsampling               : 4:2:0\nBit depth                        : 8 bits\nScan type                        : Progressive\nBits/(Pixel*Frame)               : 0.181\nStream size                      : 756 MiB (69%)\nWriting library                  : XviD 1.1.2 (UTC 2006-11-01)\n\nAudio:\n\nFormat                           : AC-3\nFormat/Info                      : Audio Coding 3\nMode extension                   : CM (complete main)\nCodec ID                         : 2000\nDuration                         : 1h 45mn\nBit rate mode                    : Constant\nBit rate                         : 448 Kbps\nChannel(s)                       : 6 channels\nChannel positions                : Front: L C R, Side: L R, LFE\nSampling rate                    : 48.0 KHz\nBit depth                        : 16 bits\nStream size                      : 339 MiB (31%)\nAlignment                        : Aligned on interleaves\nInterleave, duration             : 32 ms (0.77 video frame)\nInterleave, preload duration     : 64 ms\n\n\n\n\n\n","torrent":{"xt":"urn:btih:a7a05ae735895687fe26a2eaeef4f71b426ba096","amp;dn":"The+Adjustment+Burea+2011+DVDrip+English+Klam","amp;tr":["udp%3A%2F%2Ftracker.openbittorrent.com%3A80","udp%3A%2F%2Fopen.demonii.com%3A1337","udp%3A%2F%2Ftracker.coppersurfer.tk%3A6969","udp%3A%2F%2Fexodus.desync.com%3A6969"],"infoHash":"a7a05ae735895687fe26a2eaeef4f71b426ba096","infoHashBuffer":{"type":"Buffer","data":[167,160,90,231,53,137,86,135,254,38,162,234,238,244,247,27,66,107,160,150]},"announce":[],"urlList":[]}}